<?xml version="1.0" encoding="UTF-8" standalone="no"?>
<!DOCTYPE svg PUBLIC "-//W3C//DTD SVG 1.1//EN"
 "http://www.w3.org/Graphics/SVG/1.1/DTD/svg11.dtd">
<!-- Generated by graphviz version 2.38.0 (20140413.2041)
 -->
<!-- Title: %3 Pages: 1 -->
<svg width="1242pt" height="417pt"
 viewBox="0.00 0.00 1242.00 417.00" xmlns="http://www.w3.org/2000/svg" xmlns:xlink="http://www.w3.org/1999/xlink">
<g id="graph0" class="graph" transform="scale(1 1) rotate(0) translate(4 413)">
<title>%3</title>
<polygon fill="white" stroke="none" points="-4,4 -4,-413 1238,-413 1238,4 -4,4"/>
<!-- 1 -->
<g id="node1" class="node"><title>1</title>
<polygon fill="#70c908" stroke="#70c908" points="898,-409 848,-409 848,-368 898,-368 898,-409"/>
<text text-anchor="middle" x="873" y="-397" font-family="Arial" font-size="10.00" fill="#ffffff">main</text>
<text text-anchor="middle" x="873" y="-386" font-family="Arial" font-size="10.00" fill="#ffffff">63.54%</text>
<text text-anchor="middle" x="873" y="-375" font-family="Arial" font-size="10.00" fill="#ffffff">(0.00%)</text>
</g>
<!-- 2 -->
<g id="node2" class="node"><title>2</title>
<polygon fill="#37bf09" stroke="#37bf09" points="790.5,-328 93.5,-328 93.5,-276 790.5,-276 790.5,-328"/>
<text text-anchor="middle" x="442" y="-316" font-family="Arial" font-size="10.00" fill="#ffffff">PrintData(unsigned long, std::vector&lt;char*, std::allocator&lt;char*&gt; &gt;&amp;, _IO_FILE*, _IO_FILE*, _IO_FILE*, unsigned long (*)(char*, _IO_FILE*), unsigned long)</text>
<text text-anchor="middle" x="442" y="-305" font-family="Arial" font-size="10.00" fill="#ffffff">56.35%</text>
<text text-anchor="middle" x="442" y="-294" font-family="Arial" font-size="10.00" fill="#ffffff">(0.00%)</text>
<text text-anchor="middle" x="442" y="-283" font-family="Arial" font-size="10.00" fill="#ffffff">6×</text>
</g>
<!-- 1&#45;&gt;2 -->
<g id="edge1" class="edge"><title>1&#45;&gt;2</title>
<path fill="none" stroke="#37bf09" stroke-width="2.25" d="M847.965,-382.592C796.223,-372.447 674.243,-348.533 577.413,-329.548"/>
<polygon fill="#37bf09" stroke="#37bf09" stroke-width="2.25" points="577.763,-326.942 569.898,-328.075 576.753,-332.094 577.763,-326.942"/>
<text text-anchor="middle" x="739" y="-351" font-family="Arial" font-size="10.00" fill="#37bf09">56.35%</text>
<text text-anchor="middle" x="739" y="-340" font-family="Arial" font-size="10.00" fill="#37bf09">6×</text>
</g>
<!-- 9 -->
<g id="node3" class="node"><title>9</title>
<polygon fill="#0d2d7c" stroke="#0d2d7c" points="1234,-328 800,-328 800,-276 1234,-276 1234,-328"/>
<text text-anchor="middle" x="1017" y="-316" font-family="Arial" font-size="10.00" fill="#ffffff">FreeData(std::vector&lt;char*, std::allocator&lt;char*&gt; &gt;&amp;, _IO_FILE*, _IO_FILE*, _IO_FILE*, char*)</text>
<text text-anchor="middle" x="1017" y="-305" font-family="Arial" font-size="10.00" fill="#ffffff">7.18%</text>
<text text-anchor="middle" x="1017" y="-294" font-family="Arial" font-size="10.00" fill="#ffffff">(7.18%)</text>
<text text-anchor="middle" x="1017" y="-283" font-family="Arial" font-size="10.00" fill="#ffffff">1×</text>
</g>
<!-- 1&#45;&gt;9 -->
<g id="edge2" class="edge"><title>1&#45;&gt;9</title>
<path fill="none" stroke="#0d2d7c" stroke-width="0.5" d="M898.231,-370.367C899.5,-369.558 900.761,-368.765 902,-368 923.115,-354.961 946.927,-341.331 967.383,-329.94"/>
<polygon fill="#0d2d7c" stroke="#0d2d7c" stroke-width="0.5" points="968.173,-330.902 970.637,-328.131 966.982,-328.761 968.173,-330.902"/>
<text text-anchor="middle" x="966" y="-351" font-family="Arial" font-size="10.00" fill="#0d2d7c">7.18%</text>
<text text-anchor="middle" x="966" y="-340" font-family="Arial" font-size="10.00" fill="#0d2d7c">1×</text>
</g>
<!-- 3 -->
<g id="node4" class="node"><title>3</title>
<polygon fill="#0bab3e" stroke="#0bab3e" points="368,-236 0,-236 0,-184 368,-184 368,-236"/>
<text text-anchor="middle" x="184" y="-224" font-family="Arial" font-size="10.00" fill="#ffffff">UseCase(std::vector&lt;char*, std::allocator&lt;char*&gt; &gt;&amp;, unsigned long, _IO_FILE*)</text>
<text text-anchor="middle" x="184" y="-213" font-family="Arial" font-size="10.00" fill="#ffffff">41.99%</text>
<text text-anchor="middle" x="184" y="-202" font-family="Arial" font-size="10.00" fill="#ffffff">(0.55%)</text>
<text text-anchor="middle" x="184" y="-191" font-family="Arial" font-size="10.00" fill="#ffffff">6×</text>
</g>
<!-- 2&#45;&gt;3 -->
<g id="edge3" class="edge"><title>2&#45;&gt;3</title>
<path fill="none" stroke="#0bab3e" stroke-width="1.68" d="M370.133,-275.93C336.585,-264.227 296.578,-250.271 262.267,-238.302"/>
<polygon fill="#0bab3e" stroke="#0bab3e" stroke-width="1.68" points="262.816,-236.084 255.929,-236.092 261.317,-240.381 262.816,-236.084"/>
<text text-anchor="middle" x="361" y="-259" font-family="Arial" font-size="10.00" fill="#0bab3e">41.99%</text>
<text text-anchor="middle" x="361" y="-248" font-family="Arial" font-size="10.00" fill="#0bab3e">6×</text>
</g>
<!-- 8 -->
<g id="node5" class="node"><title>8</title>
<polygon fill="#0c5285" stroke="#0c5285" points="678.5,-236 377.5,-236 377.5,-184 678.5,-184 678.5,-236"/>
<text text-anchor="middle" x="528" y="-224" font-family="Arial" font-size="10.00" fill="#ffffff">lookup(char*, int, _IO_FILE*, unsigned long (*)(char*, _IO_FILE*))</text>
<text text-anchor="middle" x="528" y="-213" font-family="Arial" font-size="10.00" fill="#ffffff">14.36%</text>
<text text-anchor="middle" x="528" y="-202" font-family="Arial" font-size="10.00" fill="#ffffff">(14.36%)</text>
<text text-anchor="middle" x="528" y="-191" font-family="Arial" font-size="10.00" fill="#ffffff">197148×</text>
</g>
<!-- 2&#45;&gt;8 -->
<g id="edge4" class="edge"><title>2&#45;&gt;8</title>
<path fill="none" stroke="#0c5285" stroke-width="0.57" d="M465.956,-275.93C476.86,-264.518 489.813,-250.963 501.055,-239.198"/>
<polygon fill="#0c5285" stroke="#0c5285" stroke-width="0.57" points="502.211,-239.914 503.874,-236.248 500.288,-238.076 502.211,-239.914"/>
<text text-anchor="middle" x="515" y="-259" font-family="Arial" font-size="10.00" fill="#0c5285">14.36%</text>
<text text-anchor="middle" x="515" y="-248" font-family="Arial" font-size="10.00" fill="#0c5285">197148×</text>
</g>
<!-- 4 -->
<g id="node6" class="node"><title>4</title>
<polygon fill="#0baa41" stroke="#0baa41" points="292,-144 76,-144 76,-92 292,-92 292,-144"/>
<text text-anchor="middle" x="184" y="-132" font-family="Arial" font-size="10.00" fill="#ffffff">SearchWord(char*, _IO_FILE*, unsigned long)</text>
<text text-anchor="middle" x="184" y="-121" font-family="Arial" font-size="10.00" fill="#ffffff">41.44%</text>
<text text-anchor="middle" x="184" y="-110" font-family="Arial" font-size="10.00" fill="#ffffff">(4.42%)</text>
<text text-anchor="middle" x="184" y="-99" font-family="Arial" font-size="10.00" fill="#ffffff">60000×</text>
</g>
<!-- 3&#45;&gt;4 -->
<g id="edge5" class="edge"><title>3&#45;&gt;4</title>
<path fill="none" stroke="#0baa41" stroke-width="1.66" d="M184,-183.93C184,-173.679 184,-161.698 184,-150.839"/>
<polygon fill="#0baa41" stroke="#0baa41" stroke-width="1.66" points="186.24,-150.648 184,-144.248 181.76,-150.648 186.24,-150.648"/>
<text text-anchor="middle" x="201" y="-167" font-family="Arial" font-size="10.00" fill="#0baa41">41.44%</text>
<text text-anchor="middle" x="201" y="-156" font-family="Arial" font-size="10.00" fill="#0baa41">60000×</text>
</g>
<!-- 5 -->
<g id="node7" class="node"><title>5</title>
<polygon fill="#0ba45a" stroke="#0ba45a" points="309,-52 59,-52 59,-0 309,-0 309,-52"/>
<text text-anchor="middle" x="184" y="-40" font-family="Arial" font-size="10.00" fill="#ffffff">SearchInList(char*, Node*, _IO_FILE*, unsigned long)</text>
<text text-anchor="middle" x="184" y="-29" font-family="Arial" font-size="10.00" fill="#ffffff">37.02%</text>
<text text-anchor="middle" x="184" y="-18" font-family="Arial" font-size="10.00" fill="#ffffff">(37.02%)</text>
<text text-anchor="middle" x="184" y="-7" font-family="Arial" font-size="10.00" fill="#ffffff">128637429×</text>
</g>
<!-- 4&#45;&gt;5 -->
<g id="edge6" class="edge"><title>4&#45;&gt;5</title>
<path fill="none" stroke="#0ba45a" stroke-width="1.48" d="M184,-91.93C184,-81.582 184,-69.472 184,-58.5318"/>
<polygon fill="#0ba45a" stroke="#0ba45a" stroke-width="1.48" points="186.135,-58.3477 184,-52.2477 181.865,-58.3478 186.135,-58.3477"/>
<text text-anchor="middle" x="203" y="-75" font-family="Arial" font-size="10.00" fill="#0ba45a">37.02%</text>
<text text-anchor="middle" x="203" y="-64" font-family="Arial" font-size="10.00" fill="#0ba45a">585258×</text>
</g>
<!-- 5&#45;&gt;5 -->
<g id="edge7" class="edge"><title>5&#45;&gt;5</title>
<path fill="none" stroke="#0ba45a" stroke-width="1.48" d="M309.121,-31.3396C314.727,-29.981 318,-28.2012 318,-26 318,-24.7618 316.964,-23.657 315.061,-22.6854"/>
<polygon fill="#0ba45a" stroke="#0ba45a" stroke-width="1.48" points="315.584,-20.6082 309.121,-20.6604 314.206,-24.6498 315.584,-20.6082"/>
<text text-anchor="middle" x="345" y="-23.5" font-family="Arial" font-size="10.00" fill="#0ba45a">128052171×</text>
</g>
<!-- 6 -->
<g id="node8" class="node"><title>6</title>
<polygon fill="#0c768d" stroke="#0c768d" points="963,-409 907,-409 907,-368 963,-368 963,-409"/>
<text text-anchor="middle" x="935" y="-397" font-family="Arial" font-size="10.00" fill="#ffffff">End</text>
<text text-anchor="middle" x="935" y="-386" font-family="Arial" font-size="10.00" fill="#ffffff">20.44%</text>
<text text-anchor="middle" x="935" y="-375" font-family="Arial" font-size="10.00" fill="#ffffff">(20.44%)</text>
</g>
<!-- 7 -->
<g id="node9" class="node"><title>7</title>
<polygon fill="#0c5b88" stroke="#0c5b88" points="1028,-409 972,-409 972,-368 1028,-368 1028,-409"/>
<text text-anchor="middle" x="1000" y="-397" font-family="Arial" font-size="10.00" fill="#ffffff">loop</text>
<text text-anchor="middle" x="1000" y="-386" font-family="Arial" font-size="10.00" fill="#ffffff">16.02%</text>
<text text-anchor="middle" x="1000" y="-375" font-family="Arial" font-size="10.00" fill="#ffffff">(16.02%)</text>
</g>
</g>
</svg>
