<?xml version="1.0" encoding="UTF-8" standalone="no"?>
<!DOCTYPE svg PUBLIC "-//W3C//DTD SVG 1.1//EN"
 "http://www.w3.org/Graphics/SVG/1.1/DTD/svg11.dtd">
<!-- Generated by graphviz version 2.38.0 (20140413.2041)
 -->
<!-- Title: %3 Pages: 1 -->
<svg width="349pt" height="152pt"
 viewBox="0.00 0.00 348.50 152.00" xmlns="http://www.w3.org/2000/svg" xmlns:xlink="http://www.w3.org/1999/xlink">
<g id="graph0" class="graph" transform="scale(1 1) rotate(0) translate(4 148)">
<title>%3</title>
<polygon fill="white" stroke="none" points="-4,4 -4,-148 344.5,-148 344.5,4 -4,4"/>
<!-- 11 -->
<g id="node1" class="node"><title>11</title>
<polygon fill="#ff0000" stroke="#ff0000" points="173.5,-144 51.5,-144 51.5,-92 173.5,-92 173.5,-144"/>
<text text-anchor="middle" x="112.5" y="-132" font-family="Arial" font-size="10.00" fill="#ffffff">_GLOBAL__sub_I_main</text>
<text text-anchor="middle" x="112.5" y="-121" font-family="Arial" font-size="10.00" fill="#ffffff">100.00%</text>
<text text-anchor="middle" x="112.5" y="-110" font-family="Arial" font-size="10.00" fill="#ffffff">(100.00%)</text>
<text text-anchor="middle" x="112.5" y="-99" font-family="Arial" font-size="10.00" fill="#ffffff">1×</text>
</g>
<!-- 12 -->
<g id="node2" class="node"><title>12</title>
<polygon fill="#ff0000" stroke="#ff0000" points="225,-52 0,-52 0,-0 225,-0 225,-52"/>
<text text-anchor="middle" x="112.5" y="-40" font-family="Arial" font-size="10.00" fill="#ffffff">__static_initialization_and_destruction_0(int, int)</text>
<text text-anchor="middle" x="112.5" y="-29" font-family="Arial" font-size="10.00" fill="#ffffff">100.00%</text>
<text text-anchor="middle" x="112.5" y="-18" font-family="Arial" font-size="10.00" fill="#ffffff">(100.00%)</text>
<text text-anchor="middle" x="112.5" y="-7" font-family="Arial" font-size="10.00" fill="#ffffff">1×</text>
</g>
<!-- 11&#45;&gt;12 -->
<g id="edge1" class="edge"><title>11&#45;&gt;12</title>
<path fill="none" stroke="#ff0000" stroke-width="4" d="M112.5,-91.93C112.5,-82.7425 112.5,-72.1661 112.5,-62.2526"/>
<polygon fill="#ff0000" stroke="#ff0000" stroke-width="4" points="116,-62.2477 112.5,-52.2477 109,-62.2478 116,-62.2477"/>
<text text-anchor="middle" x="132" y="-75" font-family="Arial" font-size="10.00" fill="#ff0000">100.00%</text>
<text text-anchor="middle" x="132" y="-64" font-family="Arial" font-size="10.00" fill="#ff0000">1×</text>
</g>
<!-- 13 -->
<g id="node3" class="node"><title>13</title>
<polygon fill="#ff0000" stroke="#ff0000" points="340.5,-144 182.5,-144 182.5,-92 340.5,-92 340.5,-144"/>
<text text-anchor="middle" x="261.5" y="-132" font-family="Arial" font-size="10.00" fill="#ffffff">strcmp(char const*, char const*)</text>
<text text-anchor="middle" x="261.5" y="-121" font-family="Arial" font-size="10.00" fill="#ffffff">100.00%</text>
<text text-anchor="middle" x="261.5" y="-110" font-family="Arial" font-size="10.00" fill="#ffffff">(100.00%)</text>
<text text-anchor="middle" x="261.5" y="-99" font-family="Arial" font-size="10.00" fill="#ffffff">1×</text>
</g>
</g>
</svg>
